# xmcd
# Track frame offsets:
# 150
# 11601
# 23243
# 34622
# 45071
# 56303
# 65178
# 76279
# 86991
# 97214
# 108926
# 121493
# 136124
# 148929
# 158970
# 174118
# 185156
# 195341
# 205343
# 217698
# 228256
# 237914
# 247001
# 258800
# 268969
# 282857
# 293651
# 304880
#
# Disc length: 4197 seconds
# Revision: 0
# Processed by: cddbd v1.5.2PL0 Copyright (c) Steve Scherf et al.
# Submitted via: VisiTrax 2.11.3.279 - For more info visit www.synapsa.com
#
DISCID=8c10631c
DTITLE=Cline, Patsy - Just Out of Reach - 2 Early Albums Plus Singles 1955-19
DTITLE=61 (Disk 1 of 2)
DYEAR=2012
DGENRE=Country
TTITLE0=That Wonderfull Someone
TTITLE1=In Care of the Blues
TTITLE2=Hungry for Love
TTITLE3=Too Many Secrets
TTITLE4=Don't Ever Leave Me Again
TTITLE5=Ain't No Wheels on this Ship (We Can't Roll)
TTITLE6=I Can't Forget
TTITLE7=I Don't Wanta
TTITLE8=Three Cigarettes in an Ashtray
TTITLE9=Walking After Midnight (1956 Version)
TTITLE10=Fingerprints
TTITLE11=Then You'll Know
TTITLE12=I Fall to Pieces
TTITLE13=Foolin' 'Round
TTITLE14=Wayward Wind, The
TTITLE15=South of the Border (Down Mexico Way)
TTITLE16=I Love You So Much It Hurts Me
TTITLE17=Seven Lonely Days
TTITLE18=Crazy
TTITLE19=San Antonio Rose
TTITLE20=True Love
TTITLE21=Walking After Midnight (1961 Version)
TTITLE22=Poor Man's Roses (Or A Rich Man's Gold)
TTITLE23=Have You Ever Been Lonely (Have You Ever Been Blue)
TTITLE24=A Church, A Courtroom and Then Goodbye
TTITLE25=Honky Tonk Merry Go Round
TTITLE26=Hidin' Out
TTITLE27=Turns The Cards Slowly
EXTD="Patsy Cline" Decca DL 8611 C. 1957 Tracks 1-12 and "Showcase" Decca D
EXTD=L 742202 1961 and Pop Albums No. 73 1962 Tracks 13-24 and The Coral and Decc
EXTD=a Singles 25-28 and disk 2.
EXTT0=
EXTT1=
EXTT2=
EXTT3=
EXTT4=
EXTT5=
EXTT6=
EXTT7=
EXTT8=
EXTT9=
EXTT10=
EXTT11=
EXTT12=
EXTT13=
EXTT14=
EXTT15=
EXTT16=
EXTT17=
EXTT18=
EXTT19=
EXTT20=
EXTT21=
EXTT22=
EXTT23=
EXTT24=
EXTT25=
EXTT26=
EXTT27=
PLAYORDER=
